<mxfile host="app.diagrams.net" modified="2023-04-10T20:28:44.480Z" agent="Mozilla/5.0 (Macintosh; Intel Mac OS X 10_15_7) AppleWebKit/537.36 (KHTML, like Gecko) Chrome/112.0.0.0 Safari/537.36" etag="omdyLrwRtA2CJu73jp7u" version="21.1.5" type="device">
  <diagram name="Page-1" id="nNrRzMJntUDOqbRkXg9S">
    <mxGraphModel dx="467" dy="379" grid="1" gridSize="10" guides="1" tooltips="1" connect="1" arrows="1" fold="1" page="1" pageScale="1" pageWidth="850" pageHeight="1100" math="0" shadow="0">
      <root>
        <mxCell id="0" />
        <mxCell id="1" parent="0" />
        <mxCell id="vlbRMJQWBu6Qyt2dsa4R-8" value="" style="shape=trapezoid;perimeter=trapezoidPerimeter;whiteSpace=wrap;html=1;fixedSize=1;rotation=90;size=35;" parent="1" vertex="1">
          <mxGeometry x="200" y="355" width="120" height="90" as="geometry" />
        </mxCell>
        <mxCell id="vlbRMJQWBu6Qyt2dsa4R-10" value="" style="shape=trapezoid;perimeter=trapezoidPerimeter;whiteSpace=wrap;html=1;fixedSize=1;rotation=-90;size=35;" parent="1" vertex="1">
          <mxGeometry x="330" y="355" width="120" height="90" as="geometry" />
        </mxCell>
        <mxCell id="vlbRMJQWBu6Qyt2dsa4R-11" value="" style="rounded=0;whiteSpace=wrap;html=1;rotation=90;" parent="1" vertex="1">
          <mxGeometry x="300" y="390" width="50" height="20" as="geometry" />
        </mxCell>
        <mxCell id="vlbRMJQWBu6Qyt2dsa4R-12" value="" style="rounded=0;whiteSpace=wrap;html=1;rotation=90;" parent="1" vertex="1">
          <mxGeometry x="140" y="390" width="120" height="20" as="geometry" />
        </mxCell>
        <mxCell id="vlbRMJQWBu6Qyt2dsa4R-14" value="" style="rounded=0;whiteSpace=wrap;html=1;rotation=90;" parent="1" vertex="1">
          <mxGeometry x="390" y="390" width="120" height="20" as="geometry" />
        </mxCell>
        <mxCell id="EWWKK4_6YEZGy6IkgvSF-1" value="" style="rounded=0;whiteSpace=wrap;html=1;rotation=90;" vertex="1" parent="1">
          <mxGeometry x="315" y="325" width="20" height="20" as="geometry" />
        </mxCell>
        <mxCell id="EWWKK4_6YEZGy6IkgvSF-3" value="" style="rounded=0;whiteSpace=wrap;html=1;rotation=90;" vertex="1" parent="1">
          <mxGeometry x="315" y="460" width="20" height="20" as="geometry" />
        </mxCell>
      </root>
    </mxGraphModel>
  </diagram>
</mxfile>
